<svg xmlns="http://www.w3.org/2000/svg" viewBox="0 0 512 512">
  <!-- normalized by svg_normalize.py from mode_render.svg -->
  <path d="M 117.34,320.28 C 129.66,313.68 144.85,307.15 157.61,301.06 C 186.54,286.98 215.83,273.65 245.45,261.1 L 245.6,306.22 C 247.44,306.26 248.41,306.31 250.2,306.01 L 250.64,305.31 C 252.01,306.85 258.13,305.99 260.46,306.09 C 261.75,306.11 263.79,306.32 264.81,305.72 C 265.4,301.37 265.22,291.6 265.17,287.03 C 265.04,278.86 265.06,270.69 265.21,262.53 C 293.98,275.42 323.67,290.51 352.27,304.18 L 380.76,317.77 C 383.33,319 392.56,323.24 394.65,324.64 L 394.66,377.45 L 309.33,419.22 L 280.83,433.04 C 272.62,437.08 263.47,441.8 255.13,445.44 C 249.45,442.89 242.06,438.78 236.45,435.84 C 225.23,429.99 214.05,424.08 202.91,418.1 L 117.34,372.76 L 117.34,320.28 z" fill="#4050F0"/>
  <path d="M 255.09,391.1 C 281.31,379.52 308.55,365.48 334.57,353.16 C 353.79,344.07 375.81,334.29 394.65,324.64 L 394.66,377.45 L 309.33,419.22 L 280.83,433.04 C 272.62,437.08 263.47,441.8 255.13,445.44 C 254.69,439.81 254.94,429.41 254.96,423.43 C 254.98,412.92 254.74,401.53 255.09,391.1 z" fill="#3039C9"/>
  <path d="M 117.34,372.76 L 117.34,320.28 C 151.31,337.42 185.17,354.79 218.92,372.38 L 244.95,385.79 C 246.52,386.59 254.35,390.51 255.09,391.1 C 254.74,401.53 254.98,412.92 254.96,423.43 C 254.94,429.41 254.69,439.81 255.13,445.44 C 249.45,442.89 242.06,438.78 236.45,435.84 C 225.23,429.99 214.05,424.08 202.91,418.1 L 117.34,372.76 z" fill="#2631A8"/>
  <path d="M 250.67,107.1 C 273.17,105.07 293,121.77 294.84,144.29 C 296.67,166.8 279.8,186.49 257.27,188.13 C 235.02,189.75 215.62,173.13 213.81,150.89 C 212,128.65 228.45,109.1 250.67,107.1 z" fill="#4050F0"/>
  <path d="M 249.81,206.56 L 259.6,206.53 L 260.46,306.09 C 258.13,305.99 252.01,306.85 250.64,305.31 C 251.01,296.64 250.69,286.83 250.59,278.05 L 250.27,239.06 C 250.1,228.64 249.62,216.94 249.81,206.56 z" fill="#3039C9"/>
  <path d="M 296.96,218.65 C 298,219.25 325.1,271.38 327.63,276.3 L 319.55,280.36 C 318.66,279.8 291.74,228.01 288.98,222.53 C 291.7,221.39 294.33,219.99 296.96,218.65 z" fill="#3039C9"/>
  <path d="M 211.74,218.77 L 220.19,222.77 C 210.5,241.11 200.12,259.62 190.8,278.08 C 189.64,277.96 183.65,275.03 182.18,274.35 C 184.39,269.44 188.43,262.63 191.02,257.64 C 197.75,244.64 205.01,231.76 211.74,218.77 z" fill="#3039C9"/>
  <path d="M 248.38,66.57 L 261.2,66.56 L 261.21,96.33 L 248.36,96.38 L 248.38,66.57 z" fill="#3039C9"/>
  <path d="M 307.89,85.91 C 310.61,88.21 314.47,92.31 317.09,94.94 L 296.25,115.45 L 286.97,106.74 C 293.43,100.85 301.53,92.24 307.89,85.91 z" fill="#3039C9"/>
  <path d="M 294.22,180.36 C 297.03,181.99 312.09,198.11 315.18,201.25 L 306.08,210.07 C 301.06,205.92 290.58,194.54 285.22,189.29 C 288.32,186.42 291.33,183.44 294.22,180.36 z" fill="#3039C9"/>
  <path d="M 215.17,180.8 C 215.95,181.3 223.25,188.48 224.5,189.69 C 217.74,195.93 210.11,203.88 203.63,210.47 C 202.24,209.66 195.89,203.12 194.41,201.63 C 201.27,194.86 208.64,187.82 215.17,180.8 z" fill="#3039C9"/>
  <path d="M 201.51,86.31 C 202.91,86.92 220.24,104.74 222.53,107.13 C 219.55,109.91 216.48,113.04 213.55,115.92 L 192.68,95.29 L 201.51,86.31 z" fill="#3039C9"/>
  <path d="M 174.2,141.63 L 202.85,141.63 L 202.8,154.46 L 174.2,154.51 L 174.2,141.63 z" fill="#3039C9"/>
  <path d="M 306.74,141.21 L 335.36,141.16 C 335.46,145.38 335.38,149.83 335.38,154.07 L 306.57,154.08 C 306.49,150.03 306.67,145.31 306.74,141.21 z" fill="#3039C9"/>
</svg>
