<svg xmlns="http://www.w3.org/2000/svg" viewBox="0 0 512 512">
  <!-- small-size variant of logo.svg: dash ring, corner ticks and sub-5px residue removed -->
  <path d="M 197.68,120.75 C 204.06,118.7 211.75,115.57 218.28,113.22 L 258.81,99.05 L 276.05,93.07 C 282.29,90.89 288.21,88.73 294.7,87.06 C 323.55,79.65 355.26,79.36 384.35,86.12 C 403.16,90.49 430.1,100.97 441.36,118.03 C 444.53,122.84 445.94,129.9 444.55,135.59 C 445.23,136.76 445.21,139.92 445.21,141.39 C 445.29,153.26 445.21,165.16 445.19,177.03 L 445.3,239.44 L 445.39,275.87 C 445.39,281.94 445.63,289.54 445.03,295.45 C 444.25,303.19 431.96,312.15 424.9,314.03 C 423.77,314.48 422.9,314.89 421.7,315.06 C 415.65,316.99 407.81,320.34 401.8,322.67 L 362.81,337.8 L 312.75,357.18 C 305.87,359.86 298.33,362.47 291.59,365.4 C 306.24,374.07 321.27,382.65 335.81,391.43 C 328.24,394.66 319.86,397.82 312.15,400.83 L 279.54,413.66 C 272.64,416.36 262.83,419.85 256.41,422.91 C 255.98,423.14 255.55,423.35 255.14,423.62 C 253.43,423.66 251.32,422.04 249.8,421.16 L 242.92,417.28 L 218.31,403.53 L 125.21,350.74 C 116.61,345.88 107.99,340.84 99.36,336.06 C 94.1,333.16 88.87,330.21 83.65,327.23 C 82.41,326.53 76.76,323.69 76.35,322.84 L 76.57,322.34 L 78.02,321.61 C 80.51,320.88 86.25,318.36 88.98,317.25 L 112.05,307.9 L 163.02,287.6 C 174.51,282.97 186.22,278.03 197.75,273.59 C 197.48,256.6 197.7,238.99 197.71,221.94 L 197.68,120.75 z" fill="#3039C9"/>
  <path d="M 337.55,261.59 C 337.69,261.73 337.82,261.89 337.98,261.96 C 345.61,264.08 353.58,266.63 361.18,268.94 C 373.49,272.62 385.78,276.36 398.05,280.17 L 413.84,284.98 C 415.12,285.37 420.23,286.83 421.21,287.33 L 421.31,287.63 C 421.02,290.19 421.11,308 421.58,310.14 C 411.57,313.64 401.22,317.88 391.31,321.75 L 351.82,336.99 C 344.71,339.71 337.51,342.59 330.37,345.21 L 329,345.63 C 318.53,349.85 308.04,353.99 297.51,358.05 C 291.91,360.24 286.53,362.21 281.01,364.65 C 284.11,366.68 287.63,368.6 290.83,370.47 L 300.76,376.35 C 302.23,377.21 308.25,380.52 309.21,381.53 C 309.1,382 308.63,382.2 308.14,382.59 L 308.55,382.52 L 308.22,382.65 L 308.64,382.37 L 308.68,382.55 L 309.96,381.97 C 313.12,383.63 316.3,385.54 319.38,387.34 C 321.31,388.46 323.27,389.76 325.31,390.67 C 317.63,393.38 308.69,397.18 300.99,400.19 C 285.52,406.13 270.13,412.25 254.81,418.54 C 245.68,413.46 236.58,408.33 227.51,403.15 L 175.87,373.9 L 86.27,323.2 L 164.45,292 C 177.36,286.91 190.22,281.71 203.04,276.4 C 207.81,278.7 214.55,282.56 219.27,285.15 C 228.61,290.19 237.9,295.31 247.14,300.52 L 319.83,340.41 C 320.02,340.14 320.01,340.07 320.13,339.74 C 319.96,337.32 320.06,333.82 320.06,331.34 L 320.05,316.55 L 320.05,268.68 L 320.06,268.05 C 322.49,267.04 335.8,261.79 337.55,261.59 z" fill="#FFFFFF"/>
        <path d="M 218.33,314.01 C 219.11,313.97 223.17,316.52 224.15,317.07 L 237.58,324.59 C 251.49,332.31 265.35,340.12 279.15,348.02 C 275.47,349.76 270.3,351.66 266.44,353.26 C 255.27,357.87 243.79,362.13 232.65,366.82 C 231.65,366.91 177.87,336.43 171.66,333.07 L 205.99,319.35 C 208.34,318.39 216.68,315.2 218.33,314.01 z" fill="#3039C9"/>
  <path d="M 218.72,319.56 C 220.62,320.45 223.13,321.98 225.02,323.05 C 228.26,324.89 231.51,326.71 234.76,328.52 C 246.03,334.75 257.26,341.05 268.46,347.41 C 265.43,348.28 260.47,350.54 257.35,351.75 C 249.18,354.92 240.96,358.58 232.75,361.62 C 230.89,360.79 228.43,359.3 226.6,358.26 L 216.65,352.64 L 182.87,333.79 L 218.72,319.56 z" fill="#FFFFFF"/>
                                                  <path d="M 421.73,158.06 C 431.98,152.89 440.65,146.97 444.55,135.59 C 445.23,136.76 445.21,139.92 445.21,141.39 C 445.29,153.26 445.21,165.16 445.19,177.03 L 445.3,239.44 L 445.39,275.87 C 445.39,281.94 445.63,289.54 445.03,295.45 C 444.25,303.19 431.96,312.15 424.9,314.03 C 423.77,314.48 422.9,314.89 421.7,315.06 L 421.81,314.37 C 421.79,313.38 421.85,310.97 421.58,310.14 C 421.11,308 421.02,290.19 421.31,287.63 L 421.21,287.33 C 420.23,286.83 415.12,285.37 413.84,284.98 L 398.05,280.17 C 385.78,276.36 373.49,272.62 361.18,268.94 C 353.58,266.63 345.61,264.08 337.98,261.96 C 337.82,261.89 337.69,261.73 337.55,261.59 C 337.79,259.01 337.59,251.55 337.59,248.51 L 337.58,221.41 L 337.59,200.15 C 337.59,198.23 337.71,190.75 337.39,189.2 C 343.13,186.84 351.48,184.17 357.54,182 L 395.32,168.39 C 404.02,165.27 413.5,162.13 421.73,158.06 z" fill="#9EAFE9"/>
  <path d="M 421.73,158.06 C 431.98,152.89 440.65,146.97 444.55,135.59 C 445.23,136.76 445.21,139.92 445.21,141.39 C 445.29,153.26 445.21,165.16 445.19,177.03 L 445.3,239.44 L 445.39,275.87 C 445.39,281.94 445.63,289.54 445.03,295.45 C 444.25,303.19 431.96,312.15 424.9,314.03 C 423.77,314.48 422.9,314.89 421.7,315.06 L 421.81,314.37 C 421.79,313.38 421.85,310.97 421.58,310.14 C 421.11,308 421.02,290.19 421.31,287.63 L 421.43,288.66 L 421.54,288.65 C 421.98,286.79 421.9,281.59 421.91,279.47 L 421.91,262.61 L 421.87,198.07 L 421.89,170.79 C 421.89,168.4 422.07,159.78 421.73,158.06 z" fill="#D0D8FA"/>
    <path d="M 320.05,195.29 C 325.37,193.64 332.01,191.09 337.39,189.2 C 337.71,190.75 337.59,198.23 337.59,200.15 L 337.58,221.41 L 337.59,248.51 C 337.59,251.55 337.79,259.01 337.55,261.59 C 335.8,261.79 322.49,267.04 320.06,268.05 L 320.05,195.29 z" fill="#D0D8FA"/>
  <path d="M 337.51,92.22 C 359.84,91.8 383.49,96.11 403.1,107.03 C 410.89,111.36 422.92,120.1 422.77,129.64 C 422.52,145.68 400.47,152.86 388.62,157.18 C 380.91,160 373.19,162.79 365.45,165.53 L 346.83,172.26 C 344.56,173.08 339.86,174.92 337.68,175.49 C 330.73,178.28 322.78,180.94 315.67,183.51 C 310.83,180.26 304.18,176.5 299.04,173.46 C 290.49,168.44 281.97,163.36 273.47,158.25 L 240.82,138.69 C 234.18,134.69 226.25,129.61 219.56,126 C 221.3,125.54 223.92,124.54 225.67,123.94 L 237.85,119.72 L 282.56,104.14 C 291.59,101.05 301.2,97.47 310.42,95.43 C 319.33,93.5 328.4,92.42 337.51,92.22 z" fill="#D0D8FA"/>
  <path d="M 337.51,92.22 C 359.84,91.8 383.49,96.11 403.1,107.03 C 410.89,111.36 422.92,120.1 422.77,129.64 C 422.52,145.68 400.47,152.86 388.62,157.18 C 380.91,160 373.19,162.79 365.45,165.53 L 346.83,172.26 C 344.56,173.08 339.86,174.92 337.68,175.49 C 337.46,174.16 337.56,168.85 337.56,167.24 L 337.55,150.85 C 337.53,131.39 337.33,111.66 337.51,92.22 z" fill="#9EAFE9"/>
          </svg>
